# xmcd CD database file
#
# Track frame offsets:
#	150
#	18270
#	37846
#	54350
#	73222
#	91326
#	109590
#	128126
#	147590
#	169294
#	196950
#	216638
#	234054
#	255166
#	276998
#	298334
#	317750
#	338126
#
# Disc length: 4754 seconds
#
# Revision: 0
# Processed by: cddbd v1.5.2PL0 Copyright (c) Steve Scherf et al.
# Submitted via: CDex 1.51
#
DISCID=0e129012
DTITLE=EXTENDED MIXES - EXTENDED MIXES
DYEAR=2010
DGENRE=Country
TTITLE0=Don't Stop Wade Hayes
TTITLE1=A Little Less Talk and a Lot More Action Toby Keith
TTITLE2=This Thing Called Wanting and Having it All Sawyer Brown
TTITLE3=Put Your Heart Into It Sherie Austin
TTITLE4=From This Moment Shania Twain
TTITLE5=That Don't Impress Me Much Sahnia Twain
TTITLE6=If You Can't Be Good Be Good At It Neal McCoy
TTITLE7=Then What Clay Walker
TTITLE8=Whose Cheatin Who Alan Jackson
TTITLE9=Dancin Shaggin On The Blvd Alabama
TTITLE10=The Swing James Bonamy
TTITLE11=If Bubba Can Dance Shenendoah
TTITLE12=Genuine Rednecks David Lee Murphy
TTITLE13=Macarena Country Version Groove Grass Boys
TTITLE14=That Girl's Been Spying on Me Billy Dean
TTITLE15=Guys Do It All The Time Mindy McCready
TTITLE16=My Maria Brooks and Dunn
TTITLE17=Daddy's Money Ricochet
EXTD=YEAR: 2010
EXTT0=
EXTT1=
EXTT2=
EXTT3=
EXTT4=
EXTT5=
EXTT6=
EXTT7=
EXTT8=
EXTT9=
EXTT10=
EXTT11=
EXTT12=
EXTT13=
EXTT14=
EXTT15=
EXTT16=
EXTT17=
PLAYORDER=
